HIERARCHY
ROOT Hips
{
  OFFSET 196.326 95.9168 97.7182
  CHANNELS 6 Xposition Yposition Zposition Zrotation Xrotation Yrotation
  JOINT LeftUpLeg
  {
    OFFSET 8.64259 1.95398 -2.38835
    CHANNELS 3 Zrotation Xrotation Yrotation
    JOINT LeftLeg
    {
      OFFSET 43.7702 0 0
      CHANNELS 3 Zrotation Xrotation Yrotation
      JOINT LeftFoot
      {
        OFFSET 40.6238 0 0
        CHANNELS 3 Zrotation Xrotation Yrotation
        JOINT LeftToeBase
        {
          OFFSET 12.7242 0 0
          CHANNELS 3 Zrotation Xrotation Yrotation
          End Site
          {
            OFFSET 0 0 0
          }
        }
      }
    }
  }
  JOINT RightUpLeg
  {
    OFFSET -8.2249 1.95398 -2.59336
    CHANNELS 3 Zrotation Xrotation Yrotation
    JOINT RightLeg
    {
      OFFSET 43.5653 0 0
      CHANNELS 3 Zrotation Xrotation Yrotation
      JOINT RightFoot
      {
        OFFSET 40.6238 0 0
        CHANNELS 3 Zrotation Xrotation Yrotation
        JOINT RightToeBase
        {
          OFFSET 12.7242 0 0
          CHANNELS 3 Zrotation Xrotation Yrotation
          End Site
          {
            OFFSET 0 0 0
          }
        }
      }
    }
  }
  JOINT Spine
  {
    OFFSET 0.165834 0.87714 6.61349
    CHANNELS 3 Zrotation Xrotation Yrotation
    JOINT Spine1
    {
      OFFSET 7.38963 1.71661e-005 0
      CHANNELS 3 Zrotation Xrotation Yrotation
      JOINT Spine2
      {
        OFFSET 11.9445 1.14441e-005 0
        CHANNELS 3 Zrotation Xrotation Yrotation
        JOINT Spine3
        {
          OFFSET 14.7254 4.19617e-005 0
          CHANNELS 3 Zrotation Xrotation Yrotation
          JOINT Spine4
          {
            OFFSET 10.9679 0 0
            CHANNELS 3 Zrotation Xrotation Yrotation
            JOINT RightShoulder
            {
              OFFSET 2.46616 -1.6653 3.69651
              CHANNELS 3 Zrotation Xrotation Yrotation
              JOINT RightArm
              {
                OFFSET 13.0012 0 0
                CHANNELS 3 Zrotation Xrotation Yrotation
                JOINT RightForeArm
                {
                  OFFSET 28.7848 1.52588e-005 0
                  CHANNELS 3 Zrotation Xrotation Yrotation
                  JOINT RightHand
                  {
                    OFFSET 26.5688 1.52588e-005 0
                    CHANNELS 3 Zrotation Xrotation Yrotation
                    End Site
                    {
                      OFFSET 0 0 0
                    }
                  }
                }
              }
            }
            JOINT LeftShoulder
            {
              OFFSET 2.38034 -1.29275 -3.75231
              CHANNELS 3 Zrotation Xrotation Yrotation
              JOINT LeftArm
              {
                OFFSET 16.3182 6.10351e-005 0
                CHANNELS 3 Zrotation Xrotation Yrotation
                JOINT LeftForeArm
                {
                  OFFSET 27.0901 0 0
                  CHANNELS 3 Zrotation Xrotation Yrotation
                  JOINT LeftHand
                  {
                    OFFSET 24.5451 1.52588e-005 0
                    CHANNELS 3 Zrotation Xrotation Yrotation
                    End Site
                    {
                      OFFSET 0 0 0
                    }
                  }
                }
              }
            }
            JOINT Neck
            {
              OFFSET 5.0226 -0.0266342 0
              CHANNELS 3 Zrotation Xrotation Yrotation
              JOINT Head
              {
                OFFSET 6.69363 2.86102e-005 0
                CHANNELS 3 Zrotation Xrotation Yrotation
                End Site
                {
                  OFFSET 0 0 0
                }
              }
            }
          }
        }
      }
    }
  }
}
MOTION
Frames:	6
Frame Time:	0.0416667
43.4919 96.9434 19.9236 85.8302 -35.7721 87.0733 -172.239 8.64629 91.0521 -8.69989 9.66365 -0.797149 60.4275 4.47771 11.5305 38.9798 9.38975 -28.5928 178.312 8.89833 88.8744 -13.208 5.30528 -1.26091 66.4345 -2.41607 -1.29113 30.0704 -0.957499 19.7953 -0.0290196 6.73367 -89.9282 13.4085 -0.0227915 0.146644 1.73755 -0.0163019 0.1475 -20.7976 -0.0658294 0.13301 -0.784907 -0.0658233 0.133015 83.4316 -50.4752 -110.62 29.5897 -6.46124 8.8912 -8.50603 -12.6063 -40.1887 -5.82338 -0.511185 3.4307 -101.838 -43.292 58.5436 -31.189 4.90961 6.86387 4.54557 5.2145 -32.5282 10.6721 0.737316 2.86094 11.7586 -0.383977 1.94704 -3.2866 -0.834958 0.312962 
43.4485 96.9412 19.9375 85.8003 -35.771 87.0433 -172.424 8.82691 90.9511 -9.04151 8.9335 -0.552649 60.6042 4.4839 10.9514 38.4895 9.06143 -28.6442 178.294 8.86286 88.9169 -13.0081 5.8327 -1.20338 66.507 -2.45215 -1.30863 29.8767 -1.04854 20.5905 -0.0174214 6.73279 -89.9344 13.4083 -0.0028281 0.131657 1.73732 0.00297786 0.131643 -20.7978 -0.0422568 0.124717 -0.785134 -0.0422541 0.124724 83.8879 -50.336 -109.986 29.8142 -6.41641 8.70336 -8.40212 -12.6503 -39.725 -5.86018 -0.495761 2.98507 -102.121 -43.3737 58.1476 -31.1722 4.94634 7.14674 4.50161 5.09109 -32.7027 11.1677 0.746103 2.66881 12.016 -0.436715 1.91076 -3.5107 -0.879002 0.43744 
43.2287 96.9008 19.8304 86.2755 -35.9365 87.3269 -172.41 8.86018 90.9919 -9.48273 9.9994 -0.667151 59.8119 4.83714 12.6973 40.7125 10.4666 -29.5613 178.409 9.35255 88.9814 -14.384 5.12144 -1.34016 66.7345 -2.46988 -1.31836 29.566 -1.06789 19.4108 -0.00295368 6.78784 -89.9227 13.2981 0.0315625 0.150811 1.6272 0.0381719 0.149267 -20.9079 -0.0152357 0.153323 -0.895242 -0.0152219 0.153319 83.4826 -50.6898 -110.471 29.5475 -6.46256 8.90774 -8.61654 -13.1359 -39.7746 -5.91105 -0.523217 3.52744 -101.955 -43.2876 58.363 -31.4415 4.83868 7.80305 4.90617 5.17462 -34.0352 10.4603 0.779169 3.34962 11.8176 -0.515346 1.61429 -3.17398 -0.86917 0.778364 
42.8125 96.8015 19.3595 86.9596 -36.4111 87.6173 -172.447 9.52608 90.8045 -11.3141 8.89189 -0.652423 59.7918 4.98476 12.0828 41.2745 10.9174 -28.5415 178.537 10.5834 88.8998 -16.9047 4.61533 -1.58647 67.8181 -2.75217 -1.4606 27.3132 -1.70227 20.9001 0.0757173 6.89603 -89.9098 13.0816 0.193816 0.156521 1.41064 0.200519 0.147829 -21.1245 0.137805 0.207532 -1.11185 0.137813 0.20753 83.5119 -50.7238 -110.415 29.6961 -6.68861 9.19126 -8.75798 -13.0186 -40.5768 -6.73279 -0.590303 3.84939 -101.966 -43.1796 58.2985 -31.9781 4.49175 8.74113 5.073 4.5325 -35.6869 11.2568 0.824295 3.27136 11.8177 -0.677326 1.24084 -3.03631 -0.931568 0.932635 
41.8916 96.6834 18.366 87.2089 -37.7387 87.1332 -172.54 11.8448 90.2029 -14.7151 7.58356 -0.857952 57.5399 3.27876 11.1407 46.1751 14.4233 -26.7143 179.189 13.1199 88.5215 -20.015 3.23538 -2.48646 65.4919 -2.27113 -1.21548 31.4977 -0.615468 19.6545 0.165593 7.06115 -89.8344 12.7511 0.408122 0.282623 1.08021 0.420165 0.264383 -21.455 0.304314 0.392217 -1.44238 0.304311 0.392207 83.4861 -50.1221 -110.66 30.4468 -7.73189 10.2349 -11.2191 -14.1198 -44.6773 -7.40003 -0.667499 4.27787 -101.609 -42.9285 58.7327 -32.8586 3.73668 9.80949 4.55488 2.16304 -38.6708 12.9564 0.883627 2.87198 11.7451 -0.614563 0.420045 -1.64564 -0.632931 1.58277 
40.5312 96.4615 16.786 86.9998 -39.0673 86.8754 -172.177 16.419 90.1352 -20.8331 10.3679 -1.44076 56.8281 3.21784 12.2718 45.4098 15.3299 -17.0311 -179.635 16.8861 88.5239 -23.5184 2.92689 -3.52132 62.1524 -1.31205 -0.655341 34.2273 0.0236404 20.4763 0.047394 7.36675 -89.7159 12.1395 0.228612 0.541581 0.468433 0.252223 0.530993 -22.0658 0.0552834 0.585242 -2.05319 0.0552615 0.585246 83.415 -49.9972 -110.81 31.2789 -10.0759 10.7506 -10.7621 -11.7874 -49.0859 -11.7501 -0.781791 2.40423 -101.635 -42.2477 58.3853 -33.2272 0.577731 12.0708 4.19762 -1.40626 -46.2709 14.7048 1.13191 3.75856 12.2483 -0.126055 -2.30938 0.761262 0.661791 3.32296 
